<svg width="15" height="16" viewBox="0 0 15 16" fill="none" xmlns="http://www.w3.org/2000/svg">
<path d="M1.66667 16C1.20833 16 0.815972 15.8433 0.489583 15.53C0.163194 15.2167 0 14.84 0 14.4V3.2C0 2.76 0.163194 2.38333 0.489583 2.07C0.815972 1.75667 1.20833 1.6 1.66667 1.6H2.5V0H4.16667V1.6H10.8333V0H12.5V1.6H13.3333C13.7917 1.6 14.184 1.75667 14.5104 2.07C14.8368 2.38333 15 2.76 15 3.2V14.4C15 14.84 14.8368 15.2167 14.5104 15.53C14.184 15.8433 13.7917 16 13.3333 16H1.66667ZM1.66667 14.4H13.3333V6.4H1.66667V14.4ZM1.66667 4.8H13.3333V3.2H1.66667V4.8ZM7.5 9.6C7.26389 9.6 7.06597 9.52333 6.90625 9.37C6.74653 9.21667 6.66667 9.02667 6.66667 8.8C6.66667 8.57333 6.74653 8.38333 6.90625 8.23C7.06597 8.07667 7.26389 8 7.5 8C7.73611 8 7.93403 8.07667 8.09375 8.23C8.25347 8.38333 8.33333 8.57333 8.33333 8.8C8.33333 9.02667 8.25347 9.21667 8.09375 9.37C7.93403 9.52333 7.73611 9.6 7.5 9.6ZM4.16667 9.6C3.93056 9.6 3.73264 9.52333 3.57292 9.37C3.41319 9.21667 3.33333 9.02667 3.33333 8.8C3.33333 8.57333 3.41319 8.38333 3.57292 8.23C3.73264 8.07667 3.93056 8 4.16667 8C4.40278 8 4.60069 8.07667 4.76042 8.23C4.92014 8.38333 5 8.57333 5 8.8C5 9.02667 4.92014 9.21667 4.76042 9.37C4.60069 9.52333 4.40278 9.6 4.16667 9.6ZM10.8333 9.6C10.5972 9.6 10.3993 9.52333 10.2396 9.37C10.0799 9.21667 10 9.02667 10 8.8C10 8.57333 10.0799 8.38333 10.2396 8.23C10.3993 8.07667 10.5972 8 10.8333 8C11.0694 8 11.2674 8.07667 11.4271 8.23C11.5868 8.38333 11.6667 8.57333 11.6667 8.8C11.6667 9.02667 11.5868 9.21667 11.4271 9.37C11.2674 9.52333 11.0694 9.6 10.8333 9.6ZM7.5 12.8C7.26389 12.8 7.06597 12.7233 6.90625 12.57C6.74653 12.4167 6.66667 12.2267 6.66667 12C6.66667 11.7733 6.74653 11.5833 6.90625 11.43C7.06597 11.2767 7.26389 11.2 7.5 11.2C7.73611 11.2 7.93403 11.2767 8.09375 11.43C8.25347 11.5833 8.33333 11.7733 8.33333 12C8.33333 12.2267 8.25347 12.4167 8.09375 12.57C7.93403 12.7233 7.73611 12.8 7.5 12.8ZM4.16667 12.8C3.93056 12.8 3.73264 12.7233 3.57292 12.57C3.41319 12.4167 3.33333 12.2267 3.33333 12C3.33333 11.7733 3.41319 11.5833 3.57292 11.43C3.73264 11.2767 3.93056 11.2 4.16667 11.2C4.40278 11.2 4.60069 11.2767 4.76042 11.43C4.92014 11.5833 5 11.7733 5 12C5 12.2267 4.92014 12.4167 4.76042 12.57C4.60069 12.7233 4.40278 12.8 4.16667 12.8ZM10.8333 12.8C10.5972 12.8 10.3993 12.7233 10.2396 12.57C10.0799 12.4167 10 12.2267 10 12C10 11.7733 10.0799 11.5833 10.2396 11.43C10.3993 11.2767 10.5972 11.2 10.8333 11.2C11.0694 11.2 11.2674 11.2767 11.4271 11.43C11.5868 11.5833 11.6667 11.7733 11.6667 12C11.6667 12.2267 11.5868 12.4167 11.4271 12.57C11.2674 12.7233 11.0694 12.8 10.8333 12.8Z" fill="#25478A"/>
</svg>
