<svg width="18" height="18" viewBox="0 0 18 18" fill="none" xmlns="http://www.w3.org/2000/svg">
<path d="M1.4 18L0 16.6L10.25 6.35C9.95 5.65 9.90833 4.85833 10.125 3.975C10.3417 3.09167 10.8167 2.3 11.55 1.6C12.4333 0.716667 13.4167 0.2 14.5 0.05C15.5833 -0.1 16.4667 0.166667 17.15 0.85C17.8333 1.53333 18.1 2.41667 17.95 3.5C17.8 4.58333 17.2833 5.56667 16.4 6.45C15.7 7.18333 14.9083 7.65833 14.025 7.875C13.1417 8.09167 12.35 8.05 11.65 7.75L10.4 9L18 16.6L16.6 18L9 10.45L1.4 18ZM4.35 9.45L1.35 6.45C0.45 5.55 0 4.475 0 3.225C0 1.975 0.45 0.9 1.35 0L7.55 6.25L4.35 9.45Z" fill="#333333"/>
</svg>
