<svg width="18" height="18" viewBox="0 0 18 18" fill="none" xmlns="http://www.w3.org/2000/svg">
<path d="M9 11.4545C9.68182 11.4545 10.2614 11.2159 10.7386 10.7386C11.2159 10.2614 11.4545 9.68182 11.4545 9C11.4545 8.31818 11.2159 7.73864 10.7386 7.26136C10.2614 6.78409 9.68182 6.54545 9 6.54545C8.31818 6.54545 7.73864 6.78409 7.26136 7.26136C6.78409 7.73864 6.54545 8.31818 6.54545 9C6.54545 9.68182 6.78409 10.2614 7.26136 10.7386C7.73864 11.2159 8.31818 11.4545 9 11.4545ZM9 13.0909C7.86818 13.0909 6.90341 12.692 6.10568 11.8943C5.30795 11.0966 4.90909 10.1318 4.90909 9C4.90909 7.86818 5.30795 6.90341 6.10568 6.10568C6.90341 5.30795 7.86818 4.90909 9 4.90909C10.1318 4.90909 11.0966 5.30795 11.8943 6.10568C12.692 6.90341 13.0909 7.86818 13.0909 9C13.0909 10.1318 12.692 11.0966 11.8943 11.8943C11.0966 12.692 10.1318 13.0909 9 13.0909ZM3.27273 9.81818H0V8.18182H3.27273V9.81818ZM18 9.81818H14.7273V8.18182H18V9.81818ZM8.18182 3.27273V0H9.81818V3.27273H8.18182ZM8.18182 18V14.7273H9.81818V18H8.18182ZM4.41818 5.52273L2.35227 3.53864L3.51818 2.33182L5.48182 4.37727L4.41818 5.52273ZM14.4818 15.6682L12.4977 13.6023L13.5818 12.4773L15.6477 14.4614L14.4818 15.6682ZM12.4773 4.41818L14.4614 2.35227L15.6682 3.51818L13.6227 5.48182L12.4773 4.41818ZM2.33182 14.4818L4.39773 12.4977L5.52273 13.5818L3.53864 15.6477L2.33182 14.4818Z" fill="white"/>
</svg>
